<?xml version="1.0" encoding="UTF-8" standalone="no"?>
<svg
   xmlns:dc="http://purl.org/dc/elements/1.1/"
   xmlns:cc="http://creativecommons.org/ns#"
   xmlns:rdf="http://www.w3.org/1999/02/22-rdf-syntax-ns#"
   xmlns:svg="http://www.w3.org/2000/svg"
   xmlns="http://www.w3.org/2000/svg"
   xmlns:sodipodi="http://sodipodi.sourceforge.net/DTD/sodipodi-0.dtd"
   xmlns:inkscape="http://www.inkscape.org/namespaces/inkscape"
   inkscape:version="1.0 (5b275a35d9, 2020-05-03)"
   sodipodi:docname="undraw.svg"
   version="1.1"
   viewBox="0 0 1012.29306 636.61261"
   height="636.61261"
   width="1012.29306"
   data-name="Layer 1"
   id="e4efdc2f-150c-4196-a68d-a8467dcc9971">
  <metadata
     id="metadata1159">
    <rdf:RDF>
      <cc:Work
         rdf:about="">
        <dc:format>image/svg+xml</dc:format>
        <dc:type
           rdf:resource="http://purl.org/dc/dcmitype/StillImage" />
        <dc:title>fill_forms</dc:title>
      </cc:Work>
    </rdf:RDF>
  </metadata>
  <defs
     id="defs1157">
    <linearGradient
       gradientTransform="matrix(0.26458333,0,0,0.26458333,-385.78303,9.5001228)"
       id="ae8f1d99-169f-42eb-bca8-084a90728b1c"
       x1="815.82"
       y1="804.15"
       x2="815.82"
       y2="292.5"
       gradientUnits="userSpaceOnUse">
      <stop
         offset="0"
         stop-color="gray"
         stop-opacity="0.25"
         id="stop956" />
      <stop
         offset="0.54"
         stop-color="gray"
         stop-opacity="0.12"
         id="stop958" />
      <stop
         offset="1"
         stop-color="gray"
         stop-opacity="0.1"
         id="stop960" />
    </linearGradient>
  </defs>
  <sodipodi:namedview
     inkscape:current-layer="e4efdc2f-150c-4196-a68d-a8467dcc9971"
     inkscape:window-maximized="1"
     inkscape:window-y="0"
     inkscape:window-x="0"
     inkscape:cy="323.44948"
     inkscape:cx="389.78553"
     inkscape:zoom="0.46486496"
     showgrid="false"
     id="namedview1155"
     inkscape:window-height="1051"
     inkscape:window-width="1920"
     inkscape:pageshadow="2"
     inkscape:pageopacity="0"
     guidetolerance="10"
     gridtolerance="10"
     objecttolerance="10"
     borderopacity="1"
     bordercolor="#666666"
     pagecolor="#ffffff" />
  <title
     id="title1096">fill_forms</title>
  <g
     id="g1511">
    <path
       style="stroke-width:1.04498"
       id="path967"
       opacity="0.1"
       fill="#00b0ff"
       d="M 601.94386,79.948589 C 532.24647,77.667109 465.86597,56.484749 402.46854,33.304939 339.07108,10.125079 276.29826,-15.559336 208.27012,-27.788074 164.51545,-35.687073 114.48237,-36.80247 79.224506,-14.717725 45.301958,6.576107 34.339049,43.231936 28.437634,77.271639 c -4.426097,25.623581 -7.042988,52.575441 5.115296,76.556381 8.432144,16.6497 23.41193,30.64282 33.771759,46.59289 36.033261,55.48563 10.564423,123.90987 -28.494912,178.0874 -18.307413,25.41063 -39.56555291,49.68561 -53.705327,76.71871 -14.139739,27.03299 -20.676597,58.051 -8.313703,85.65185 12.265983,27.37782 41.48241,47.90102 73.121912,62.35042 64.280501,29.34485 139.997741,37.75082 213.895011,42.50652 163.49583,10.53538 327.8747,5.97242 491.80136,1.40942 60.67287,-1.69331 121.60417,-3.40694 181.28634,-12.23887 33.1471,-4.90767 67.37113,-12.69516 91.42933,-31.43374 30.5412,-23.85919 38.1117,-64.26682 17.6506,-94.17956 -34.332,-50.18245 -129.22883,-62.65458 -153.25461,-116.50773 -13.21364,-29.63893 0.35553,-62.6647 19.54583,-90.15402 C 953.46735,243.64741 1022.4863,191.91355 1026.1263,124.49325 1028.6247,78.194349 995.44525,31.824509 944.14138,9.912139 890.36075,-13.054777 815.79572,-10.164897 776.14408,27.849658 735.26471,66.898479 663.47819,81.956289 601.94386,79.948589 Z" />
    <path
       style="stroke-width:0.847801"
       id="path835"
       fill="#a0616a"
       d="m 400.80625,285.62528 c 0,0 72.51772,3.29065 76.88625,27.14794 4.36854,23.85728 -84.74961,2.46802 -84.74961,2.46802 z" />
    <path
       style="fill:#f86d70;fill-opacity:1;stroke-width:0.847801"
       id="path837"
       fill="#575a89"
       d="m 286.35061,209.94018 c 0,0 12.23189,3.29065 21.84267,23.03459 9.61079,19.74394 28.83234,37.84255 28.83234,37.84255 l 77.75996,13.98532 -13.10561,37.01991 -74.26513,-9.04933 -46.30649,-24.67993 z" />
    <path
       style="fill:#f86d70;fill-opacity:1;stroke-width:0.847801"
       id="path839"
       opacity="0.1"
       d="m 287.66111,210.35127 c 0,0 12.23191,3.29066 21.84268,23.0346 9.61078,19.74394 28.83234,37.84255 28.83234,37.84255 l 77.75996,13.98531 -13.10562,37.01992 -74.26511,-9.04933 -46.30649,-24.67993 z" />
    <rect
       style="stroke-width:0.847801"
       id="rect841"
       fill="#3f3d56"
       height="1.645329"
       width="91.739265"
       y="142.89301"
       x="790.04285" />
    <rect
       style="stroke-width:0.847801"
       id="rect843"
       fill="#3f3d56"
       height="1.645329"
       width="290.94455"
       y="142.89301"
       x="427.45432" />
    <polygon
       transform="matrix(0.87370731,0,0,0.82266455,69.851993,66.43924)"
       id="polygon847"
       fill="#a0616a"
       points="115.793,128.434 124.793,185.434 186.793,188.434 179.793,104.434 " />
    <path
       style="fill:#464353;fill-opacity:1;stroke-width:0.847801"
       id="path849"
       fill="#2f2e41"
       d="m 113.79341,485.12145 -2.62112,103.65573 h 82.12848 l 12.23191,-41.13321 9.61078,41.13321 h 85.62332 c 0,0 1.74741,-118.46369 -7.86338,-119.28638 -9.61078,-0.82264 -179.10999,15.63065 -179.10999,15.63065 z" />
    <ellipse
       style="stroke-width:0.847801"
       id="circle851"
       fill="#a0616a"
       cy="140.01369"
       cx="188.49539"
       rx="47.180195"
       ry="44.423885" />
    <path
       style="fill:#f86d70;fill-opacity:1;stroke-width:0.847801"
       id="path853"
       fill="#575a89"
       d="m 108.98802,489.64609 24.4638,-113.52771 -32.32716,-150.54761 74.45239,-26.30538 36.50842,-4.13322 18.35357,-3.22603 13.09991,3.22603 c 0,0 52.42243,12.33999 55.04355,21.38932 2.62112,9.04928 -10.48448,83.0891 -10.48448,83.0891 l -12.23191,60.8772 27.08492,109.41436 c 0,0 -112.70824,36.19722 -192.2156,19.74394 z" />
    <polygon
       transform="matrix(0.87370731,0,0,0.82266455,69.851993,66.43924)"
       id="polygon855"
       opacity="0.1"
       points="82.293,243.934 82.293,280.934 200.285,281.095 88.293,268.934 " />
    <polygon
       transform="matrix(0.87370731,0,0,0.82266455,69.851993,66.43924)"
       id="polygon857"
       opacity="0.1"
       points="72.159,346.12 220.293,324.934 72.159,366.89 " />
    <polygon
       transform="matrix(0.87370731,0,0,0.82266455,69.851993,66.43924)"
       id="polygon859"
       opacity="0.1"
       points="307.293,248.934 291.412,306.159 318.293,250.822 " />
    <path
       style="stroke-width:0.847801"
       id="path861"
       fill="#2f2e41"
       d="m 227.32376,95.461128 8.67597,-3.270436 c 0,0 -18.14063,-18.805083 -43.37999,-17.169766 l 7.09873,-7.35858 c 0,0 -17.35196,-6.540819 -33.12644,10.628917 -8.29236,9.025741 -17.88668,19.635107 -23.86773,31.586347 h -9.29137 l 3.87787,8.0398 -13.57256,8.03981 13.9309,-1.44412 a 47.714903,44.927356 0 0 0 -0.37803,13.33549 18.324884,17.254328 0 0 0 6.71038,11.28749 v 0 c 0,0 10.75979,-20.97059 10.75979,-24.24107 v 8.17614 c 0,0 8.67598,-7.35846 8.67598,-12.26412 l 4.73231,5.72329 2.36614,-8.99377 29.18277,8.99377 -4.7323,-7.35845 18.14064,2.4528 -7.09872,-8.99378 c 0,0 20.50677,10.62895 21.29567,19.62272 0.78863,8.99363 6.79106,17.51569 6.79106,17.51569 0,0 16.08194,-42.04406 -6.79106,-54.308172 z" />
    <rect
       style="stroke-width:0.847801"
       id="rect863"
       fill="#d0cde1"
       height="329.88849"
       width="335.5036"
       y="259.71136"
       x="273.68185" />
    <rect
       style="stroke-width:0.847801"
       id="rect865"
       fill="#6c63ff"
       height="32.906582"
       width="248.13287"
       y="332.1059"
       x="308.63016" />
    <rect
       style="stroke-width:0.847801"
       id="rect867"
       fill="#6c63ff"
       height="16.453291"
       width="162.50467"
       y="419.30832"
       x="351.28738" />
    <rect
       style="stroke-width:0.847801"
       id="rect869"
       fill="#6c63ff"
       height="16.453291"
       width="162.50467"
       y="448.10159"
       x="351.60107" />
    <rect
       style="stroke-width:0.847801"
       id="rect871"
       fill="#6c63ff"
       height="16.453291"
       width="81.252335"
       y="476.89487"
       x="351.91483" />
    <rect
       style="stroke-width:0.847801"
       id="rect873"
       fill="#6c63ff"
       height="16.453291"
       width="37.569416"
       y="559.98395"
       x="523.56207" />
    <path
       style="stroke-width:0.847801"
       id="path875"
       fill="#a0616a"
       d="m 249.65489,301.25592 c 0,0 76.01253,-10.69466 87.37073,4.93599 11.35819,15.63064 -80.38107,23.85728 -80.38107,23.85728 z" />
    <path
       style="fill:#f86d70;fill-opacity:1;stroke-width:0.847801"
       id="path877"
       fill="#575a89"
       d="m 109.86173,224.74813 h -5.47454 a 8.9251036,8.4036911 0 0 0 -6.077339,2.22696 c -5.196754,4.54337 -16.185062,16.26808 -20.775296,37.26092 -6.115954,27.97058 -16.600441,82.26646 6.989654,86.37976 23.590101,4.11335 178.236301,-15.63059 178.236301,-15.63059 l -11.3582,-37.8426 -111.83454,0.82268 c 0,0 1.74741,-18.09861 -1.74742,-29.6159 -3.49482,-11.5173 -27.95862,-43.60123 -27.95862,-43.60123 z" />
    <ellipse
       style="stroke-width:0.847801"
       id="circle879"
       fill="#d0cde1"
       cy="143.71568"
       cx="427.45432"
       rx="35.821999"
       ry="33.729244" />
    <ellipse
       style="fill:#3f3d56;fill-opacity:1;stroke-width:0.847801"
       id="circle881"
       fill="#3f3d56"
       cy="143.71568"
       cx="590.83752"
       rx="35.821999"
       ry="33.729244" />
    <path
       style="stroke-width:0.847801"
       id="path883"
       fill="#3f3d56"
       d="m 754.22084,178.26759 a 36.695707,34.551911 0 1 1 36.69575,-34.55194 36.737208,34.590987 0 0 1 -36.69575,34.55194 z m 0,-67.45851 a 34.948292,32.906582 0 1 0 34.94833,32.90657 34.988055,32.944021 0 0 0 -34.94833,-32.90657 z" />
    <path
       style="stroke-width:0.847801"
       id="path885"
       fill="#3f3d56"
       d="m 917.60411,178.26759 a 36.695707,34.551911 0 1 1 36.69569,-34.55194 36.737208,34.590987 0 0 1 -36.69569,34.55194 z m 0,-67.45851 a 34.948292,32.906582 0 1 0 34.94828,32.90657 34.988055,32.944021 0 0 0 -34.94828,-32.90657 z" />
    <polygon
       style="fill:#00b0ff;fill-opacity:1"
       transform="matrix(0.87370731,0,0,0.82266455,69.851993,66.43924)"
       id="polygon887"
       fill="#3f3d56"
       points="403.641,111.377 385.873,87.688 392.273,82.887 404.506,99.197 460.745,42.959 466.401,48.615 " />
    <rect
       style="stroke-width:0.847801"
       id="rect889"
       fill="#3f3d56"
       height="2.288661"
       width="713.46466"
       y="587.86926"
       x="84.264427" />
  </g>
</svg>
