<?xml version="1.0" encoding="UTF-8" standalone="no"?>
<svg
   xmlns:dc="http://purl.org/dc/elements/1.1/"
   xmlns:cc="http://creativecommons.org/ns#"
   xmlns:rdf="http://www.w3.org/1999/02/22-rdf-syntax-ns#"
   xmlns:svg="http://www.w3.org/2000/svg"
   xmlns="http://www.w3.org/2000/svg"
   xmlns:sodipodi="http://sodipodi.sourceforge.net/DTD/sodipodi-0.dtd"
   xmlns:inkscape="http://www.inkscape.org/namespaces/inkscape"
   id="e4efdc2f-150c-4196-a68d-a8467dcc9971"
   data-name="Layer 1"
   width="1012.29306"
   height="636.61261"
   viewBox="0 0 1012.29306 636.61261"
   version="1.1"
   sodipodi:docname="undraw1.svg"
   inkscape:version="1.0 (5b275a35d9, 2020-05-03)">
  <metadata
     id="metadata1159">
    <rdf:RDF>
      <cc:Work
         rdf:about="">
        <dc:format>image/svg+xml</dc:format>
        <dc:type
           rdf:resource="http://purl.org/dc/dcmitype/StillImage" />
        <dc:title>fill_forms</dc:title>
      </cc:Work>
    </rdf:RDF>
  </metadata>
  <defs
     id="defs1157">
    <linearGradient
       gradientUnits="userSpaceOnUse"
       y2="292.5"
       x2="815.82"
       y1="804.15"
       x1="815.82"
       id="ae8f1d99-169f-42eb-bca8-084a90728b1c"
       gradientTransform="matrix(0.26458333,0,0,0.26458333,-385.78303,9.5001228)">
      <stop
         id="stop956"
         stop-opacity="0.25"
         stop-color="gray"
         offset="0" />
      <stop
         id="stop958"
         stop-opacity="0.12"
         stop-color="gray"
         offset="0.54" />
      <stop
         id="stop960"
         stop-opacity="0.1"
         stop-color="gray"
         offset="1" />
    </linearGradient>
  </defs>
  <sodipodi:namedview
     inkscape:document-rotation="0"
     pagecolor="#ffffff"
     bordercolor="#666666"
     borderopacity="1"
     objecttolerance="10"
     gridtolerance="10"
     guidetolerance="10"
     inkscape:pageopacity="0"
     inkscape:pageshadow="2"
     inkscape:window-width="1920"
     inkscape:window-height="1051"
     id="namedview1155"
     showgrid="false"
     inkscape:zoom="0.46486496"
     inkscape:cx="265.11851"
     inkscape:cy="468.51893"
     inkscape:window-x="0"
     inkscape:window-y="0"
     inkscape:window-maximized="1"
     inkscape:current-layer="e4efdc2f-150c-4196-a68d-a8467dcc9971" />
  <title
     id="title1096">fill_forms</title>
  <path
     style="stroke-width:0.972008"
     id="path967"
     opacity="0.1"
     fill="#00b0ff"
     d="M 588.22564,104.91735 C 523.32366,102.79755 461.51036,83.116318 402.47488,61.579189 343.43938,40.04201 284.98553,16.177769 221.63794,4.8156432 180.89374,-2.5235788 134.30309,-3.5599313 101.47108,16.959738 69.88252,36.744543 59.673894,70.80269 54.178517,102.4301 c -4.121568,23.80772 -6.558409,48.8496 4.763345,71.13108 7.851985,15.46978 21.801115,28.47126 31.448154,43.291 33.554064,51.55353 9.837554,115.12877 -26.534371,165.4669 -17.047802,23.60987 -36.843314,46.16456 -50.010226,71.2819 -13.16687914,25.11725 -19.2539797,53.9371 -7.7416929,79.58199 11.4220429,25.43763 38.6282859,44.50642 68.0908879,57.93184 59.857796,27.26526 130.365436,35.07554 199.178346,39.4942 152.24679,9.78878 305.31585,5.54917 457.96382,1.30955 56.49839,-1.57331 113.23742,-3.1655 168.81326,-11.37155 30.86647,-4.55988 62.73578,-11.79548 85.1387,-29.20612 28.43976,-22.16838 35.48936,-59.71244 16.43616,-87.50536 -31.96982,-46.62618 -120.33744,-58.21445 -142.71017,-108.25119 -12.3045,-27.53851 0.33106,-58.22385 18.201,-83.76508 C 915.56319,257.01535 979.83341,208.94772 983.22297,146.30528 985.54947,103.28743 954.65287,60.203671 906.87888,39.844162 856.79853,18.504838 787.36382,21.189922 750.44033,56.510505 712.3736,92.792059 645.52623,106.78277 588.22564,104.91735 Z" />
  <path
     style="stroke-width:0.847801"
     id="path835"
     fill="#a0616a"
     d="m 400.80625,285.62528 c 0,0 72.51772,3.29065 76.88625,27.14794 4.36854,23.85728 -84.74961,2.46802 -84.74961,2.46802 z" />
  <path
     style="fill:#f86d70;fill-opacity:1;stroke-width:0.847801"
     id="path837"
     fill="#575a89"
     d="m 286.35061,209.94018 c 0,0 12.23189,3.29065 21.84267,23.03459 9.61079,19.74394 28.83234,37.84255 28.83234,37.84255 l 77.75996,13.98532 -13.10561,37.01991 -74.26513,-9.04933 -46.30649,-24.67993 z" />
  <path
     style="fill:#f86d70;fill-opacity:1;stroke-width:0.847801"
     id="path839"
     opacity="0.1"
     d="m 287.66111,210.35127 c 0,0 12.23191,3.29066 21.84268,23.0346 9.61078,19.74394 28.83234,37.84255 28.83234,37.84255 l 77.75996,13.98531 -13.10562,37.01992 -74.26511,-9.04933 -46.30649,-24.67993 z" />
  <rect
     style="stroke-width:0.847801"
     id="rect841"
     fill="#3f3d56"
     height="1.645329"
     width="91.739265"
     y="142.89301"
     x="790.04285" />
  <rect
     style="stroke-width:0.847801"
     id="rect843"
     fill="#3f3d56"
     height="1.645329"
     width="290.94455"
     y="142.89301"
     x="427.45432" />
  <polygon
     transform="matrix(0.87370731,0,0,0.82266455,69.851993,66.43924)"
     id="polygon847"
     fill="#a0616a"
     points="115.793,128.434 124.793,185.434 186.793,188.434 179.793,104.434 " />
  <path
     style="fill:#464353;fill-opacity:1;stroke-width:0.847801"
     id="path849"
     fill="#2f2e41"
     d="m 113.79341,485.12145 -2.62112,103.65573 h 82.12848 l 12.23191,-41.13321 9.61078,41.13321 h 85.62332 c 0,0 1.74741,-118.46369 -7.86338,-119.28638 -9.61078,-0.82264 -179.10999,15.63065 -179.10999,15.63065 z" />
  <ellipse
     style="stroke-width:0.847801"
     id="circle851"
     fill="#a0616a"
     cy="140.01369"
     cx="188.49539"
     rx="47.180195"
     ry="44.423885" />
  <path
     style="fill:#f86d70;fill-opacity:1;stroke-width:0.847801"
     id="path853"
     fill="#575a89"
     d="m 108.98802,489.64609 24.4638,-113.52771 -32.32716,-150.54761 74.45239,-26.30538 36.50842,-4.13322 18.35357,-3.22603 13.09991,3.22603 c 0,0 52.42243,12.33999 55.04355,21.38932 2.62112,9.04928 -10.48448,83.0891 -10.48448,83.0891 l -12.23191,60.8772 27.08492,109.41436 c 0,0 -112.70824,36.19722 -192.2156,19.74394 z" />
  <polygon
     transform="matrix(0.87370731,0,0,0.82266455,69.851993,66.43924)"
     id="polygon855"
     opacity="0.1"
     points="82.293,243.934 82.293,280.934 200.285,281.095 88.293,268.934 " />
  <polygon
     transform="matrix(0.87370731,0,0,0.82266455,69.851993,66.43924)"
     id="polygon857"
     opacity="0.1"
     points="220.293,324.934 72.159,366.89 72.159,346.12 " />
  <polygon
     transform="matrix(0.87370731,0,0,0.82266455,69.851993,66.43924)"
     id="polygon859"
     opacity="0.1"
     points="291.412,306.159 318.293,250.822 307.293,248.934 " />
  <path
     style="stroke-width:0.847801"
     id="path861"
     fill="#2f2e41"
     d="m 227.32376,95.461128 8.67597,-3.270436 c 0,0 -18.14063,-18.805083 -43.37999,-17.169766 l 7.09873,-7.35858 c 0,0 -17.35196,-6.540819 -33.12644,10.628917 -8.29236,9.025741 -17.88668,19.635107 -23.86773,31.586347 h -9.29137 l 3.87787,8.0398 -13.57256,8.03981 13.9309,-1.44412 a 47.714903,44.927356 0 0 0 -0.37803,13.33549 18.324884,17.254328 0 0 0 6.71038,11.28749 v 0 c 0,0 10.75979,-20.97059 10.75979,-24.24107 v 8.17614 c 0,0 8.67598,-7.35846 8.67598,-12.26412 l 4.73231,5.72329 2.36614,-8.99377 29.18277,8.99377 -4.7323,-7.35845 18.14064,2.4528 -7.09872,-8.99378 c 0,0 20.50677,10.62895 21.29567,19.62272 0.78863,8.99363 6.79106,17.51569 6.79106,17.51569 0,0 16.08194,-42.04406 -6.79106,-54.308172 z" />
  <rect
     style="stroke-width:0.847801"
     id="rect863"
     fill="#d0cde1"
     height="329.88849"
     width="335.5036"
     y="259.71136"
     x="273.68185" />
  <rect
     style="stroke-width:0.847801"
     id="rect865"
     fill="#6c63ff"
     height="32.906582"
     width="248.13287"
     y="332.1059"
     x="308.63016" />
  <rect
     style="stroke-width:0.847801"
     id="rect867"
     fill="#6c63ff"
     height="16.453291"
     width="162.50467"
     y="419.30832"
     x="351.28738" />
  <rect
     style="stroke-width:0.847801"
     id="rect869"
     fill="#6c63ff"
     height="16.453291"
     width="162.50467"
     y="448.10159"
     x="351.60107" />
  <rect
     style="stroke-width:0.847801"
     id="rect871"
     fill="#6c63ff"
     height="16.453291"
     width="81.252335"
     y="476.89487"
     x="351.91483" />
  <rect
     style="stroke-width:0.847801"
     id="rect873"
     fill="#6c63ff"
     height="16.453291"
     width="37.569416"
     y="559.98395"
     x="523.56207" />
  <path
     style="stroke-width:0.847801"
     id="path875"
     fill="#a0616a"
     d="m 249.65489,301.25592 c 0,0 76.01253,-10.69466 87.37073,4.93599 11.35819,15.63064 -80.38107,23.85728 -80.38107,23.85728 z" />
  <path
     style="fill:#f86d70;fill-opacity:1;stroke-width:0.847801"
     id="path877"
     fill="#575a89"
     d="m 109.86173,224.74813 h -5.47454 a 8.9251036,8.4036911 0 0 0 -6.077339,2.22696 c -5.196754,4.54337 -16.185062,16.26808 -20.775296,37.26092 -6.115954,27.97058 -16.600441,82.26646 6.989654,86.37976 23.590101,4.11335 178.236301,-15.63059 178.236301,-15.63059 l -11.3582,-37.8426 -111.83454,0.82268 c 0,0 1.74741,-18.09861 -1.74742,-29.6159 -3.49482,-11.5173 -27.95862,-43.60123 -27.95862,-43.60123 z" />
  <ellipse
     style="stroke-width:0.847801"
     id="circle879"
     fill="#d0cde1"
     cy="143.71568"
     cx="427.45432"
     rx="35.821999"
     ry="33.729244" />
  <ellipse
     style="fill:#3f3d56;fill-opacity:1;stroke-width:0.847801"
     id="circle881"
     fill="#3f3d56"
     cy="143.71568"
     cx="590.83752"
     rx="35.821999"
     ry="33.729244" />
  <path
     style="stroke-width:0.847801"
     id="path883"
     fill="#3f3d56"
     d="m 754.22084,178.26759 a 36.695707,34.551911 0 1 1 36.69575,-34.55194 36.737208,34.590987 0 0 1 -36.69575,34.55194 z m 0,-67.45851 a 34.948292,32.906582 0 1 0 34.94833,32.90657 34.988055,32.944021 0 0 0 -34.94833,-32.90657 z" />
  <path
     style="stroke-width:0.847801"
     id="path885"
     fill="#3f3d56"
     d="m 917.60411,178.26759 a 36.695707,34.551911 0 1 1 36.69569,-34.55194 36.737208,34.590987 0 0 1 -36.69569,34.55194 z m 0,-67.45851 a 34.948292,32.906582 0 1 0 34.94828,32.90657 34.988055,32.944021 0 0 0 -34.94828,-32.90657 z" />
  <polygon
     style="fill:#00b0ff;fill-opacity:1"
     transform="matrix(0.87370731,0,0,0.82266455,69.851993,66.43924)"
     id="polygon887"
     fill="#3f3d56"
     points="460.745,42.959 466.401,48.615 403.641,111.377 385.873,87.688 392.273,82.887 404.506,99.197 " />
  <rect
     style="stroke-width:0.847801"
     id="rect889"
     fill="#3f3d56"
     height="2.288661"
     width="713.46466"
     y="587.86926"
     x="84.264427" />
</svg>
